<?xml version="1.0" standalone="no"?>
<!DOCTYPE svg PUBLIC "-//W3C//DTD SVG 20010904//EN"
 "http://www.w3.org/TR/2001/REC-SVG-20010904/DTD/svg10.dtd">
<svg version="1.0" xmlns="http://www.w3.org/2000/svg"
 width="512.000000pt" height="512.000000pt" viewBox="0 0 512.000000 512.000000"
 preserveAspectRatio="xMidYMid meet">

<g transform="translate(0.000000,512.000000) scale(0.100000,-0.100000)"
fill="#000000" stroke="none">
<path d="M0 2560 l0 -2560 2560 0 2560 0 0 2560 0 2560 -2560 0 -2560 0 0
-2560z m2524 2334 c9 -34 21 -131 27 -215 6 -84 13 -157 16 -162 3 -5 7 -32 9
-61 2 -28 7 -64 11 -81 6 -28 8 -25 20 30 l12 60 -5 -55 c-3 -30 -7 -75 -9
-100 l-4 -45 14 55 c14 55 14 55 10 10 -4 -32 -2 -41 5 -30 8 13 10 13 10 -2
0 -10 4 -18 8 -18 12 0 34 -93 29 -121 -2 -13 -2 -18 0 -11 8 22 21 12 26 -20
3 -18 8 -44 13 -57 5 -16 4 -22 -3 -18 -14 9 -21 -31 -14 -74 l5 -34 7 30 c5
19 6 9 4 -30 -2 -33 -2 -52 1 -42 8 25 24 21 24 -6 0 -13 3 -27 7 -30 3 -4 8
-32 9 -63 2 -31 11 -78 21 -103 14 -36 18 -76 18 -181 0 -74 1 -123 3 -107 5
42 22 32 22 -14 0 -24 -4 -38 -10 -34 -5 3 -10 1 -10 -6 0 -8 -5 -7 -17 2 -15
13 -15 12 -3 -11 8 -14 15 -36 17 -50 1 -14 3 -31 4 -37 1 -7 9 -13 17 -13 9
0 13 -2 10 -5 -3 -4 -18 -3 -34 1 -25 6 -26 8 -9 15 12 5 -8 7 -50 7 -52 0
-62 -2 -40 -8 22 -5 11 -7 -40 -7 -38 0 -109 -4 -156 -8 -60 -5 -89 -4 -93 4
-4 6 -13 11 -19 11 -7 0 -6 -4 3 -10 10 -6 -1 -8 -35 -4 -43 4 -60 0 -120 -30
-66 -33 -109 -39 -70 -9 15 10 16 16 7 25 -9 9 -12 9 -12 -2 0 -11 -3 -11 -12
-2 -28 28 -13 141 56 412 37 146 71 283 76 305 4 22 17 76 28 120 36 144 40
173 26 193 -6 10 -12 31 -12 47 0 37 18 116 30 131 4 6 6 19 2 28 -4 10 -1 16
8 16 15 0 21 30 22 112 1 31 4 54 8 52 4 -3 6 8 4 24 -2 16 6 49 19 77 13 27
22 52 20 56 -3 4 2 12 10 19 8 7 15 18 15 24 -1 23 35 125 42 118 3 -4 14 -35
22 -68z m311 -19 c369 -36 722 -166 1040 -384 112 -78 307 -229 319 -250 7
-11 -41 -51 -61 -51 -7 0 -36 -16 -64 -35 -28 -19 -58 -35 -66 -35 -9 0 -41
22 -72 48 -78 67 -168 132 -183 132 -6 0 8 -13 33 -29 24 -15 60 -42 79 -59
19 -18 40 -32 45 -32 6 0 3 -5 -5 -11 -13 -9 -12 -10 3 -5 21 7 76 -42 60 -53
-5 -3 -12 -13 -15 -21 -6 -16 -106 -55 -172 -66 -28 -5 -37 -4 -32 5 4 6 0 11
-10 11 -12 0 -15 6 -12 25 9 45 -8 35 -26 -15 l-18 -50 -30 16 c-16 8 -32 14
-34 12 -2 -3 3 -49 11 -103 17 -109 20 -212 6 -217 -4 -1 -20 -21 -35 -43 -15
-22 -49 -71 -77 -110 -28 -38 -89 -126 -136 -195 -46 -69 -95 -140 -108 -158
l-23 -33 -21 56 c-12 31 -21 60 -21 65 0 11 -41 125 -132 363 -33 87 -63 170
-68 185 -5 15 -24 66 -44 115 l-35 87 27 -5 c25 -5 25 -4 -4 9 -33 16 -71 87
-58 109 4 7 4 9 -1 5 -11 -10 -34 42 -115 262 -38 102 -72 194 -76 204 -7 18
-3 19 67 13 68 -6 257 -42 354 -68 136 -37 371 -131 455 -184 45 -28 137 -75
147 -75 19 1 -191 117 -282 157 -110 49 -265 102 -365 127 -97 24 -296 56
-346 56 -37 0 -46 4 -54 23 -66 162 -79 201 -67 209 17 11 42 10 222 -7z
m-455 -6 c0 -6 -30 -65 -67 -132 -37 -67 -86 -161 -109 -209 -24 -47 -54 -105
-69 -128 -14 -23 -35 -57 -46 -76 -10 -19 -29 -51 -41 -71 -124 -214 -134
-257 -68 -300 79 -51 75 -41 46 -113 -63 -154 -156 -509 -183 -695 -17 -117
-18 -121 -48 -135 -16 -8 -36 -27 -45 -42 -13 -25 -12 -35 19 -135 18 -59 39
-115 47 -125 10 -10 12 -18 5 -22 -6 -4 -31 -51 -56 -104 -48 -102 -58 -123
-111 -214 -23 -41 -29 -58 -19 -58 10 0 7 -7 -8 -22 -13 -13 -31 -50 -41 -83
-9 -33 -23 -71 -29 -85 -6 -14 -13 -29 -15 -34 -10 -20 21 9 40 38 11 17 17
22 13 11 -4 -11 -14 -36 -21 -55 -7 -19 -13 -47 -14 -62 0 -43 -15 -69 -68
-125 -27 -29 -74 -89 -105 -135 -31 -46 -81 -117 -112 -158 -30 -41 -67 -93
-83 -115 -52 -72 -65 -131 -59 -274 4 -113 9 -139 47 -256 23 -71 44 -145 47
-163 5 -28 3 -31 -13 -26 -22 8 -164 132 -209 183 -16 19 -47 57 -69 85 -21
28 -42 50 -46 49 -5 -1 -14 5 -22 14 -11 15 -11 16 7 10 19 -7 19 -7 -1 10
-28 24 -164 233 -208 321 -86 171 -183 486 -201 656 -4 33 -11 71 -17 85 -5
14 -8 134 -6 281 1 140 2 285 2 322 0 37 4 62 8 55 4 -7 8 6 8 29 0 23 5 66
10 95 16 82 98 335 135 414 18 39 43 92 55 120 13 27 33 64 46 81 20 26 36 79
18 61 -3 -3 -4 -7 -2 -9 1 -2 -8 -15 -20 -28 -32 -34 -127 -233 -167 -350 -42
-120 -93 -326 -100 -405 -29 -298 -27 -543 6 -755 13 -85 68 -298 105 -409 77
-229 262 -548 413 -712 39 -42 117 -115 175 -163 105 -87 116 -103 116 -173 0
-34 87 -126 114 -119 10 3 31 -3 45 -13 116 -81 231 -140 361 -184 363 -124
892 -152 1330 -71 113 21 232 55 360 102 88 33 121 53 203 118 107 84 121 102
119 152 -2 38 19 61 110 123 184 125 334 284 519 549 53 75 123 200 143 256 8
22 28 71 44 110 17 39 45 123 62 185 18 63 35 121 37 129 4 13 4 13 -6 0 -9
-13 -11 -12 -10 5 1 11 5 31 9 45 l8 25 1 -24 c1 -13 3 -22 5 -20 2 2 0 47 -4
99 -6 80 -7 85 -8 34 -2 -57 -9 -108 -34 -234 -16 -87 -28 -93 -21 -12 6 86
-10 139 -64 215 -19 27 -38 59 -43 73 -5 13 -15 24 -22 24 -7 0 -2 10 12 21
l25 21 -26 -15 c-20 -12 -44 -14 -107 -10 -98 7 -101 14 -38 87 24 29 58 86
76 128 l32 76 70 -68 c44 -44 67 -73 62 -81 -4 -8 -3 -9 4 -5 18 11 -3 44 -60
94 -26 24 -57 60 -67 80 -9 21 -43 81 -74 134 -31 54 -57 104 -57 112 0 13
-46 86 -60 96 -17 11 -120 170 -126 194 -4 17 1 37 16 61 33 53 17 54 -36 1
-46 -47 -67 -73 -121 -151 -15 -22 -41 -58 -57 -79 -79 -103 -190 -313 -206
-390 -6 -31 -16 -56 -22 -56 -7 0 -1 -11 12 -25 12 -13 32 -40 44 -59 12 -19
42 -57 68 -84 l47 -49 -34 -33 c-18 -18 -44 -52 -56 -75 l-23 -43 -67 1 c-37
1 -65 5 -62 9 4 8 -11 12 -34 9 -7 -1 -13 5 -13 14 0 9 5 13 10 10 6 -3 10 -2
10 4 0 5 -8 12 -19 16 -10 3 -26 25 -35 50 -10 24 -28 60 -41 80 -15 21 -20
35 -12 35 7 0 8 3 2 8 -5 4 -11 29 -12 55 -1 27 -14 73 -28 104 -14 30 -25 62
-25 69 0 8 -9 14 -20 14 -23 0 -26 10 -7 29 10 10 8 12 -8 9 -15 -2 -25 6 -39
32 -10 19 -29 48 -42 63 -46 55 -41 108 17 163 16 15 40 51 53 79 12 27 47 88
77 135 30 47 79 126 108 175 30 50 74 120 99 157 42 62 46 66 56 47 6 -11 37
-31 69 -44 38 -15 54 -18 46 -9 -8 10 -8 14 0 14 6 0 24 18 39 39 16 21 50 58
78 81 27 24 81 72 120 109 38 36 90 83 115 104 l44 38 25 -28 c46 -51 219
-369 253 -464 19 -52 41 -108 50 -125 23 -44 58 -194 51 -217 -4 -12 -2 -17 4
-13 6 4 8 -2 5 -14 -3 -11 -1 -26 5 -33 6 -7 9 -24 6 -38 -4 -21 -3 -22 5 -4
12 24 14 58 4 52 -5 -3 -9 18 -10 46 -2 86 -81 324 -155 472 -49 96 -158 284
-192 329 -48 63 -66 94 -66 111 0 9 12 46 26 81 14 36 29 86 33 112 l6 47 25
-26 c31 -32 39 -42 120 -154 90 -124 124 -174 144 -213 10 -19 21 -30 28 -26
6 4 8 3 5 -3 -4 -6 16 -59 44 -118 125 -267 194 -518 229 -831 18 -166 8 -528
-19 -669 -12 -60 -26 -134 -31 -163 -5 -30 -26 -104 -46 -165 -33 -103 -48
-142 -91 -234 -8 -18 -11 -37 -7 -44 4 -7 3 -9 -3 -6 -5 3 -22 -20 -37 -51
-33 -67 -126 -224 -158 -268 -13 -17 -42 -57 -66 -88 -25 -33 -40 -62 -36 -69
4 -6 4 -9 0 -5 -8 6 -33 -18 -115 -112 -17 -19 -31 -39 -31 -44 0 -14 -122
-130 -200 -189 -75 -57 -104 -72 -79 -40 13 16 12 17 -3 5 -10 -8 -16 -18 -15
-24 3 -15 -154 -107 -178 -105 -11 1 -19 -3 -18 -10 3 -16 -54 -46 -72 -39 -8
3 -15 2 -17 -2 -5 -12 -364 -137 -418 -146 -19 -3 -62 -13 -95 -21 -164 -42
-308 -57 -585 -62 -269 -4 -279 -4 -460 25 -192 31 -399 78 -504 114 -91 31
-293 121 -354 157 -29 17 -58 28 -64 25 -6 -4 -8 -3 -5 3 3 5 -8 18 -26 28
-104 60 -328 243 -390 319 -66 83 -82 103 -194 263 -47 68 -187 342 -231 453
-69 176 -129 401 -140 525 -4 49 -8 63 -12 45 -12 -45 -24 144 -25 375 0 181
4 243 22 353 46 275 108 476 214 697 152 317 364 576 669 820 180 145 491 310
724 386 219 72 546 136 546 108z m210 -319 c0 -5 -4 -10 -10 -10 -5 0 -10 5
-10 10 0 6 5 10 10 10 6 0 10 -4 10 -10z m14 -74 c-3 -15 -8 -25 -11 -23 -2 3
-1 17 3 31 3 15 8 25 11 23 2 -3 1 -17 -3 -31z m33 -18 c-3 -8 -6 -5 -6 6 -1
11 2 17 5 13 3 -3 4 -12 1 -19z m1724 -181 c-11 -26 -34 -102 -50 -169 -17
-68 -44 -154 -61 -193 -16 -38 -30 -82 -30 -97 0 -18 -5 -28 -15 -28 -8 0 -23
-4 -33 -10 -43 -24 -125 -49 -200 -60 -141 -21 -232 17 -193 79 7 11 15 11 45
1 33 -11 50 -30 26 -30 -5 0 -10 -6 -10 -14 0 -21 62 -10 120 21 59 31 162
104 156 110 -5 6 -64 -29 -134 -78 -23 -17 -56 -34 -72 -39 -27 -8 -30 -6 -30
15 0 13 15 39 35 60 20 20 33 40 30 44 -2 5 7 17 22 26 33 22 127 119 108 111
-19 -7 -19 -5 7 44 12 22 38 51 58 62 37 23 155 121 204 170 15 16 30 27 32
25 3 -2 -4 -25 -15 -50z m-281 -182 c0 -21 -41 -79 -92 -131 -32 -33 -58 -65
-56 -71 2 -5 -16 -29 -40 -52 -42 -41 -42 -41 -62 -21 -11 11 -17 26 -14 34 3
8 1 16 -3 19 -5 3 -22 -22 -38 -56 -28 -59 -47 -87 -59 -87 -13 0 -28 47 -36
118 -5 42 -12 87 -16 100 -20 70 48 -27 72 -103 l13 -40 0 38 c1 20 -3 37 -9
37 -5 0 -10 7 -10 16 0 8 4 13 9 10 4 -3 16 3 26 14 9 10 38 26 64 36 31 11
55 28 70 50 21 30 71 72 71 59 0 -6 -81 -120 -117 -164 l-28 -35 28 19 c24 16
30 16 38 4 7 -11 9 -8 9 9 0 44 43 104 119 164 44 36 61 45 61 33z m-200 -83
c0 -7 -9 -11 -102 -51 -45 -19 -48 -19 -69 -2 -22 18 -22 18 27 24 27 3 67 12
89 20 49 18 55 19 55 9z m390 -226 c0 -3 -7 -6 -15 -6 -9 0 -15 9 -15 21 0 18
2 19 15 5 8 -8 15 -17 15 -20z m-55 -34 c-17 -10 -57 -29 -90 -41 -66 -24
-110 -67 -93 -88 8 -10 6 -13 -6 -13 -9 0 -16 -4 -16 -10 0 -5 -6 -10 -13 -10
-8 0 -24 -11 -37 -25 -13 -14 -28 -25 -33 -25 -5 0 -7 29 -5 65 1 36 0 65 -4
65 -14 0 -20 -70 -9 -120 15 -70 13 -74 -9 -15 -23 63 -27 174 -6 156 8 -7 17
-8 20 -3 3 5 29 12 58 15 29 4 87 20 128 36 41 17 91 30 110 30 l35 1 -30 -18z
m-405 -42 c9 0 25 -58 18 -65 -2 -2 -20 0 -41 4 -21 5 -35 5 -31 0 7 -12 -9
-12 -21 0 -6 5 -21 11 -35 13 -22 3 -19 6 25 30 28 14 56 24 63 22 8 -2 17 -4
22 -4z m50 -80 c0 -15 8 -55 19 -88 10 -33 15 -65 11 -71 -8 -14 -54 1 -66 21
-9 14 -7 65 3 82 8 12 9 18 11 64 2 40 22 33 22 -8z m221 19 c-13 -11 -26 -17
-29 -14 -7 6 29 34 43 34 6 0 -1 -9 -14 -20z m-378 -4 c20 -8 55 -15 78 -15
45 0 50 -19 8 -31 -13 -4 -18 -7 -10 -8 11 -1 11 -4 0 -17 -7 -8 -21 -13 -30
-11 -20 5 -36 -10 -36 -34 0 -20 -129 -248 -212 -372 -36 -54 -78 -120 -92
-146 -14 -25 -30 -46 -35 -46 -5 0 -28 14 -51 30 -76 54 -72 65 162 419 135
205 141 212 158 199 7 -6 23 -7 37 -4 24 7 24 7 -8 20 -17 7 -29 17 -26 22 7
12 16 11 57 -6z m-1145 -492 c9 -15 14 -15 75 0 107 27 219 22 331 -14 67 -21
102 -38 116 -56 15 -20 64 -153 76 -208 1 -5 7 -28 12 -50 7 -25 8 -54 2 -79
-4 -21 -6 -45 -3 -52 4 -10 0 -12 -12 -7 -16 6 -17 2 -12 -33 l7 -39 -20 30
-20 30 4 -48 c4 -44 3 -47 -12 -34 -10 8 -27 18 -39 21 -19 6 -23 3 -23 -13 0
-25 49 -84 65 -77 7 2 21 -2 32 -9 10 -8 13 -15 8 -15 -6 0 -17 6 -24 13 -11
10 -13 9 -7 -1 6 -11 68 -42 84 -42 3 0 -3 9 -12 19 -16 18 -17 22 -3 42 16
22 16 22 34 -17 9 -21 26 -49 37 -61 20 -24 10 -32 -14 -10 -7 6 -4 -2 8 -19
22 -32 104 -104 119 -104 20 -1 93 -106 93 -133 0 -7 -4 -6 -10 3 -9 13 -10
13 -9 0 0 -8 6 -44 14 -80 8 -36 14 -87 14 -115 l0 -50 -14 33 c-17 38 -29 44
-15 6 17 -44 12 -174 -9 -239 -11 -33 -24 -87 -29 -120 -15 -86 -34 -155 -44
-155 -9 0 -5 24 18 104 16 58 18 93 3 61 -8 -18 -9 -17 -5 5 3 14 11 57 18 95
7 39 13 102 13 140 0 61 -5 78 -33 127 -38 66 -63 89 -34 32 35 -69 35 -149 0
-377 -5 -38 -14 -65 -18 -60 -5 4 -12 65 -16 136 -7 126 -19 166 -27 85 -3
-39 -4 -38 -5 12 -1 30 -7 62 -13 70 -8 11 -9 8 -5 -15 3 -16 8 -88 10 -160
l6 -130 -24 49 c-14 27 -27 58 -31 70 -11 33 -27 -87 -22 -166 4 -75 -3 -80
-23 -16 -7 24 -18 48 -23 53 -7 7 -8 6 -3 -2 10 -18 -4 -63 -20 -63 -8 0 -13
3 -12 8 2 10 -20 62 -27 62 -3 0 -5 -6 -4 -13 3 -25 -1 -38 -11 -32 -5 3 -10
17 -10 30 0 32 -39 196 -52 215 -14 22 -1 -133 17 -200 17 -64 31 -178 21
-168 -4 3 -24 54 -45 112 -20 59 -40 103 -44 100 -4 -4 -7 -25 -7 -47 0 -38
-1 -39 -17 -24 -19 16 -21 14 -78 -128 -15 -38 -17 -39 -31 -21 -9 14 -14 46
-14 102 0 91 -16 224 -31 257 -9 21 -9 20 -5 -3 10 -54 18 -225 10 -217 -4 4
-13 33 -20 65 -15 69 -18 27 -4 -48 8 -41 7 -56 -2 -62 -9 -5 -17 7 -28 42 -9
27 -20 53 -24 57 -5 5 -6 -1 -2 -12 11 -30 20 -207 12 -247 -3 -19 -13 -43
-22 -54 -14 -18 -15 -17 -9 14 8 41 -4 134 -16 126 -5 -3 -9 1 -9 9 0 8 -6 30
-14 48 -14 32 -14 30 -11 -51 l4 -85 -11 67 c-13 77 -28 90 -28 24 0 -25 -4
-48 -10 -51 -6 -4 -10 29 -10 91 0 54 -3 95 -6 91 -3 -3 -9 -56 -13 -118 -5
-68 -12 -114 -19 -117 -6 -2 -9 -11 -6 -20 5 -14 4 -15 -4 -2 -5 8 -13 41 -17
73 -9 80 -35 73 -35 -11 -1 -32 -2 -34 -12 -18 -7 12 -9 55 -6 120 3 56 2 88
-2 71 -4 -16 -9 -52 -10 -80 -2 -44 -15 -109 -20 -95 0 3 -2 27 -3 54 -2 28
-8 51 -15 54 -7 2 -12 23 -12 52 0 55 -16 75 -26 33 -16 -72 -27 -110 -39
-133 -19 -37 -30 -94 -16 -86 6 4 11 1 11 -6 0 -7 3 -24 6 -38 5 -23 5 -24 -7
-5 -6 11 -21 28 -33 37 -19 15 -21 26 -19 105 2 78 16 190 29 248 4 16 3 17
-4 5 -6 -8 -13 -31 -17 -50 -3 -19 -16 -70 -27 -113 -19 -72 -22 -77 -37 -62
-12 12 -17 43 -20 138 -4 117 -16 126 -21 17 -2 -39 -3 -42 -11 -20 -8 23 -8
23 -5 -5 3 -17 -2 -57 -10 -90 -7 -33 -14 -75 -14 -93 0 -45 -15 -32 -29 25
-17 71 -52 154 -62 147 -5 -3 -9 1 -10 8 0 7 -7 -5 -15 -27 l-14 -40 6 50 c3
28 7 79 8 115 3 69 29 146 46 135 11 -7 11 -8 15 105 2 47 8 105 14 130 15 67
12 72 -9 13 -11 -32 -18 -77 -18 -116 1 -52 -4 -76 -29 -130 -38 -81 -51 -141
-59 -281 -5 -87 -8 -106 -17 -90 -21 37 -18 143 8 254 4 18 0 15 -15 -12 -11
-21 -24 -38 -29 -38 -5 0 -12 -17 -16 -37 -4 -20 -13 -42 -21 -48 -11 -8 -12
-18 -4 -45 15 -52 12 -69 -6 -35 -13 24 -15 49 -10 125 3 52 2 113 -3 135 l-8
40 -7 -48 c-5 -26 -6 -57 -3 -68 5 -20 5 -20 -14 -3 -50 45 -53 161 -9 288 11
33 18 61 16 64 -7 6 -33 -49 -45 -98 -20 -76 -22 -78 -37 -36 -8 21 -11 43 -7
50 4 7 2 7 -7 -1 -8 -8 -13 -46 -14 -117 l-1 -105 -20 37 c-33 62 -27 191 14
327 18 61 43 124 54 140 l21 30 -26 -23 c-24 -22 -88 -164 -88 -196 0 -25 -22
-66 -36 -66 -10 0 -12 15 -10 58 5 72 52 176 103 228 41 40 37 38 -74 -50 -70
-54 -72 -55 -52 -22 11 19 48 64 82 102 l62 68 -46 -27 c-25 -15 -49 -27 -52
-27 -4 0 13 28 37 63 23 34 62 98 86 142 24 44 47 81 51 83 4 2 6 9 3 16 -3 7
2 19 11 26 8 7 15 23 15 35 0 13 7 36 15 51 8 16 12 37 9 47 -3 9 0 17 6 17
18 0 -26 72 -70 114 -44 42 -47 59 -11 64 31 5 49 -14 78 -77 15 -35 27 -51
31 -44 5 7 6 -18 4 -55 -3 -47 -11 -76 -26 -97 -11 -16 -19 -37 -17 -45 1 -8
0 -12 -5 -8 -8 9 -34 -9 -34 -23 0 -14 20 -6 48 19 21 19 52 30 52 19 0 -10
-41 -119 -64 -169 -14 -32 -22 -58 -17 -58 16 0 37 44 56 113 10 37 22 70 28
74 5 3 7 -3 3 -14 -3 -10 -8 -37 -10 -59 -2 -22 -11 -55 -21 -73 -9 -18 -15
-35 -12 -37 4 -4 18 21 43 81 l17 40 9 -43 c8 -35 6 -47 -7 -62 -8 -9 -18 -28
-20 -41 -2 -13 -30 -48 -62 -78 l-58 -54 63 43 c66 46 86 72 97 130 4 19 18
49 32 65 24 29 24 29 18 5 -3 -14 -16 -50 -29 -80 -13 -30 -31 -73 -40 -95
-15 -39 -15 -39 2 -16 9 14 28 50 42 80 30 67 52 101 63 101 5 0 0 -15 -11
-32 -10 -18 -29 -59 -41 -90 -13 -31 -31 -64 -42 -73 -13 -13 -16 -22 -9 -35
7 -13 1 -30 -22 -66 -61 -95 -88 -145 -88 -160 0 -9 16 15 35 52 20 38 60 101
89 141 54 73 89 136 92 163 4 42 33 80 58 80 6 0 1 -8 -10 -18 -12 -9 -27 -28
-34 -42 -12 -24 -11 -23 21 6 59 53 75 60 37 16 -21 -23 -38 -50 -38 -60 0
-39 -45 -148 -85 -206 -49 -72 -99 -156 -92 -156 8 0 88 113 98 137 5 13 13
22 18 18 5 -3 13 0 17 6 4 8 3 9 -4 5 -16 -10 -15 5 1 29 8 11 24 49 37 84 32
88 96 164 152 180 23 7 70 27 103 44 52 27 70 31 135 30 41 -1 86 -6 99 -11
16 -6 43 -4 80 5 74 18 143 8 208 -28 93 -53 151 -131 259 -349 12 -26 30 -53
40 -60 13 -11 11 -3 -8 31 -15 25 -37 70 -48 100 -12 30 -32 68 -46 86 -25 33
-33 56 -12 35 7 -7 16 -12 20 -12 5 0 -22 29 -58 65 -70 68 -79 92 -22 57 32
-20 108 -110 108 -129 0 -5 5 -14 12 -21 6 -6 13 -18 14 -27 3 -20 43 -75 55
-75 6 0 7 4 4 10 -3 5 -2 18 4 28 6 11 6 33 1 55 -9 43 4 58 26 31 14 -17 14
-17 3 6 -7 13 -18 30 -25 38 -7 7 -11 18 -9 25 3 7 -33 36 -84 68 -81 52 -90
55 -112 43 -22 -11 -30 -9 -69 16 -100 65 -121 81 -130 105 -5 14 -20 29 -34
34 -17 7 -25 19 -28 46 l-4 36 83 -7 c66 -5 92 -3 127 10 56 21 80 48 72 79
-3 13 -2 27 2 31 14 15 11 71 -6 84 -9 6 -11 12 -5 12 6 0 16 -7 23 -15 7 -8
16 -13 20 -10 4 2 12 -7 19 -22 22 -48 23 -15 1 36 -42 96 -131 149 -230 138
-30 -4 -38 -3 -25 3 19 8 19 9 -2 9 -12 1 -29 -2 -39 -6 -16 -6 -16 -7 2 -15
14 -6 11 -7 -9 -3 -29 6 -61 -10 -52 -26 3 -4 -13 -20 -35 -35 -37 -25 -40
-30 -34 -60 6 -31 4 -34 -27 -43 l-34 -11 38 4 c32 4 37 2 37 -15 0 -11 16
-58 35 -106 21 -52 32 -95 29 -108 -8 -31 -71 -80 -114 -88 -25 -5 -45 -2 -71
12 -21 11 -46 17 -62 14 -25 -5 -27 -3 -27 26 0 33 8 39 28 19 8 -8 12 -8 12
-1 0 6 -6 16 -14 22 -15 13 -11 43 26 168 31 107 21 143 -55 197 -57 40 -60
41 -140 41 -98 0 -127 -16 -178 -97 -18 -29 -41 -62 -51 -73 -17 -21 -17 -21
16 -17 41 5 70 -20 62 -53 -9 -37 32 -87 84 -102 38 -11 57 -11 121 2 42 8 79
15 82 15 17 0 5 -66 -15 -87 -12 -13 -27 -38 -33 -54 -13 -39 -121 -102 -135
-79 -7 12 -15 11 -47 -7 -43 -23 -94 -35 -109 -25 -19 12 -34 50 -27 67 5 14
2 16 -16 10 -20 -6 -22 -5 -12 13 15 29 14 50 -1 29 -19 -25 -44 -7 -29 21 15
28 14 32 -4 26 -11 -5 -14 -1 -9 12 3 11 -2 7 -11 -8 -8 -16 -17 -28 -19 -28
-5 0 1 34 9 54 5 10 3 33 -4 52 -10 27 -10 55 0 132 11 87 16 100 44 129 17
17 49 36 71 42 21 6 62 21 89 34 70 34 94 39 225 47 63 4 118 8 122 8 4 1 11
-5 16 -15z m603 -158 c11 -49 66 -177 96 -224 12 -19 17 -21 25 -10 8 11 8 10
4 -4 -3 -10 -6 -23 -6 -29 0 -6 -10 -3 -21 8 -16 14 -23 16 -26 6 -10 -26 -23
1 -17 34 5 27 0 45 -24 88 -17 29 -38 82 -47 117 -9 35 -21 73 -27 84 l-10 20
20 -20 c12 -11 26 -42 33 -70z m-740 -3 c32 -33 39 -49 39 -80 0 -38 -2 -40
-51 -61 -113 -49 -176 -35 -203 44 -20 57 2 95 54 95 19 0 21 -3 11 -9 -12 -8
-12 -16 3 -55 16 -41 21 -46 49 -46 49 0 62 13 60 61 -1 23 -6 46 -11 51 -5 5
-40 9 -78 9 -81 1 -95 7 -63 26 16 9 46 12 88 10 60 -3 66 -5 102 -45z m544
24 c26 -17 26 -36 -1 -36 -10 0 -9 -5 6 -20 52 -52 -12 -140 -102 -140 -30 0
-118 33 -118 43 0 3 -7 21 -15 41 -15 35 -15 36 21 68 20 18 50 41 67 50 39
20 106 17 142 -6z m1224 -97 c37 -91 51 -114 107 -174 61 -63 84 -99 84 -128
0 -8 -3 -8 -12 1 -7 7 -16 12 -20 12 -18 0 -6 -18 32 -46 61 -45 65 -77 9 -65
-27 5 -34 14 -51 61 -11 30 -29 64 -39 75 -10 11 -25 36 -34 55 l-16 35 4 -33
c2 -18 -1 -36 -7 -39 -6 -4 -42 -10 -81 -14 l-70 -6 87 -2 87 -1 26 -43 c31
-54 32 -80 3 -96 -22 -12 -51 -46 -140 -164 -21 -27 -38 -44 -38 -38 0 5 -19
34 -43 63 -24 29 -51 67 -62 85 -17 29 -17 33 -2 57 9 13 21 46 27 73 6 26 13
56 16 65 4 12 1 16 -8 13 -7 -3 -27 4 -44 14 -46 28 -54 88 -19 147 30 51 98
144 102 140 11 -10 -44 -140 -73 -174 -45 -53 -44 -67 1 -16 34 37 35 38 35
14 1 -42 16 -4 45 115 33 131 36 139 45 128 4 -4 26 -56 49 -114z m-1471 71
c-7 -10 -14 -17 -17 -15 -4 4 18 35 25 35 2 0 -1 -9 -8 -20z m554 -17 c47 -18
88 -50 88 -68 0 -7 -8 -19 -19 -29 -21 -19 -34 -9 -45 38 l-7 29 -20 -21 c-10
-12 -19 -26 -19 -33 0 -8 -4 -8 -15 1 -14 11 -23 100 -10 100 2 0 24 -7 47
-17z m-1355 -28 c11 -8 23 -24 26 -35 8 -32 0 -27 -47 28 -22 25 -11 29 21 7z
m-89 -90 c-3 -3 -9 2 -12 12 -6 14 -5 15 5 6 7 -7 10 -15 7 -18z m1482 4 c0
-3 -8 -13 -19 -23 -16 -14 -20 -15 -30 -2 -7 8 -10 19 -7 25 6 10 56 10 56 0z
m-1473 -67 c7 -8 11 -18 8 -23 -4 -5 -1 -9 5 -9 6 0 8 -5 4 -11 -4 -6 -19 11
-35 42 -32 59 -38 76 -12 39 9 -14 23 -31 30 -38z m2493 7 c6 -10 10 -21 10
-25 0 -11 -50 37 -62 59 -9 18 -8 18 17 1 14 -9 30 -25 35 -35z m-1028 -11
c-7 -7 -12 -8 -12 -2 0 6 3 14 7 17 3 4 9 5 12 2 2 -3 -1 -11 -7 -17z m-1317
-28 c-3 -5 -10 -10 -16 -10 -5 0 -9 5 -9 10 0 6 7 10 16 10 8 0 12 -4 9 -10z
m1202 -27 c-3 -10 -5 -4 -5 12 0 17 2 24 5 18 2 -7 2 -21 0 -30z m72 -63 c4 0
12 5 19 12 9 9 29 -6 87 -62 41 -41 78 -84 81 -95 4 -11 17 -33 30 -48 28 -33
30 -52 8 -61 -19 -7 -64 35 -88 82 -9 18 -27 37 -40 42 -13 5 -26 15 -29 24
-3 8 -21 22 -39 31 l-33 16 33 -31 c19 -17 54 -54 79 -82 42 -48 44 -52 28
-65 -18 -12 -18 -14 1 -35 10 -13 28 -32 39 -43 30 -29 84 -110 102 -153 17
-39 19 -182 4 -239 -6 -22 -9 -12 -13 48 -4 52 -16 101 -38 155 -28 67 -44 90
-105 149 -77 74 -155 188 -155 224 0 12 -4 19 -10 16 -5 -3 -10 -2 -10 4 0 18
18 21 24 5 4 -9 9 -14 12 -11 3 3 -2 20 -11 37 -13 25 -14 34 -4 40 7 5 9 15
4 26 -7 18 -8 18 -16 -1 -7 -16 -8 -13 -4 10 8 42 9 48 20 65 8 11 11 6 13
-22 2 -21 7 -38 11 -38z m94 19 l27 -41 -30 25 c-16 14 -35 27 -41 29 -13 4
-4 28 10 28 4 0 19 -18 34 -41z m597 0 c0 -8 -8 -24 -18 -35 -34 -36 -51 -69
-54 -103 -1 -18 -8 -36 -15 -38 -26 -10 -11 -20 39 -26 51 -6 98 -36 98 -63 0
-7 23 -38 51 -69 45 -48 85 -122 73 -134 -4 -5 -64 40 -118 89 -49 44 -116
134 -116 156 0 10 -5 14 -14 11 -7 -3 -23 6 -35 19 l-22 25 48 87 c26 48 52
96 56 107 7 16 10 17 17 5 5 -8 10 -22 10 -31z m72 -89 c-2 -25 -10 -60 -18
-78 -13 -31 -16 -33 -46 -27 -71 16 -82 37 -48 93 34 55 43 62 80 59 l35 -2
-3 -45z m-928 -59 c-7 -7 -34 21 -28 31 3 5 12 1 19 -9 7 -10 12 -20 9 -22z
m69 15 c10 -8 14 -17 9 -20 -5 -3 -17 3 -27 14 -21 23 -9 26 18 6z m1187 -74
c0 -56 -139 -262 -177 -262 -16 0 -31 29 -29 55 2 32 133 202 164 214 38 14
42 13 42 -7z m-1227 -45 c38 -29 84 -103 72 -115 -7 -7 -110 98 -139 142 l-17
27 23 -12 c13 -6 40 -25 61 -42z m1272 -15 c-20 -38 -54 -86 -75 -107 -44 -43
-53 -43 -16 0 13 15 31 55 41 89 9 33 19 67 21 74 2 6 17 12 34 12 l31 0 -36
-68z m-1224 12 c13 -16 12 -16 -7 -6 -11 6 -27 19 -35 28 -13 16 -12 16 7 6
11 -6 27 -19 35 -28z m705 -17 c9 -16 13 -35 10 -43 -3 -8 -2 -14 2 -14 4 -1
21 -13 39 -28 22 -19 29 -32 24 -41 -7 -10 -18 -4 -45 25 -39 41 -60 79 -71
128 -6 26 -5 28 10 16 9 -7 23 -27 31 -43z m379 -197 c-3 -5 -11 -10 -16 -10
-6 0 -7 5 -4 10 3 6 11 10 16 10 6 0 7 -4 4 -10z m-267 -36 c12 -4 22 -12 22
-20 0 -8 26 -17 75 -25 74 -13 75 -13 75 -43 0 -51 -11 -59 -69 -51 -53 7 -57
12 -52 64 2 18 -2 22 -14 17 -9 -3 -20 -6 -25 -6 -4 0 -10 -8 -13 -17 -2 -10
-8 -26 -12 -35 -5 -13 -2 -18 9 -18 14 0 16 -7 11 -37 -7 -40 -53 -93 -80 -93
-8 0 -15 -5 -15 -11 0 -15 42 -89 51 -89 4 0 9 -8 12 -17 2 -10 8 -27 12 -38
l8 -20 -16 20 c-24 30 -22 2 8 -85 14 -41 24 -78 23 -82 -5 -15 -89 34 -132
78 -77 77 -90 132 -62 265 17 80 68 183 108 221 32 29 39 31 76 22z m457 -12
c24 -7 30 -14 31 -36 2 -54 -29 -63 -159 -47 -56 7 -57 6 -69 -21 -10 -21 -20
-28 -40 -28 -23 0 -27 4 -24 23 3 12 5 35 5 50 1 24 3 26 20 17 16 -8 20 -6
23 12 2 16 12 25 33 29 50 9 148 10 180 1z m126 -162 c15 -59 6 -107 -31 -158
-35 -48 -73 -62 -174 -62 l-68 0 7 37 c9 50 10 51 53 59 54 10 114 38 137 64
l20 23 -42 -21 c-42 -22 -135 -42 -120 -26 4 4 -11 27 -34 50 -23 23 -38 47
-35 53 4 6 36 11 73 11 77 0 133 27 133 63 0 38 67 -40 81 -93z m-921 70 c-19
-13 -30 -13 -30 0 0 6 10 10 23 10 18 0 19 -2 7 -10z m89 -67 c-22 -3 -25 -8
-21 -31 5 -24 3 -25 -10 -14 -13 10 -17 10 -20 0 -3 -7 -7 -2 -10 10 -7 26 17
41 62 40 l25 -1 -26 -4z m11 -23 c0 -5 -4 -10 -10 -10 -5 0 -10 5 -10 10 0 6
5 10 10 10 6 0 10 -4 10 -10z m569 -26 c17 -14 29 -29 26 -33 -2 -5 -32 -14
-65 -21 -81 -17 -141 -5 -151 30 -6 23 -6 22 -10 -9 -2 -19 -10 -36 -17 -39
-9 -3 -10 3 -2 24 6 15 8 29 6 32 -3 2 -24 -5 -48 -16 -40 -21 -71 -21 -35 -1
9 6 17 19 17 31 0 19 4 20 63 15 34 -3 82 -2 107 2 71 13 77 12 109 -15z
m-600 -69 c1 11 5 25 9 32 4 6 7 -42 7 -107 0 -82 4 -123 13 -131 6 -7 12 -23
12 -35 0 -12 4 -24 8 -26 17 -7 52 -81 52 -110 0 -28 -2 -30 -26 -24 -22 6
-25 4 -20 -10 4 -12 2 -15 -9 -11 -8 4 -17 1 -21 -4 -7 -11 -94 -7 -126 6 -41
17 -57 159 -29 273 12 49 59 157 60 139 1 -5 -4 -18 -10 -30 -10 -20 -10 -20
4 -7 8 8 17 29 21 45 5 22 4 26 -4 15 -12 -18 -13 -1 -1 19 7 10 12 8 26 -10
12 -17 16 -19 11 -6 -3 11 -3 24 1 30 5 7 11 -5 14 -28 3 -22 7 -31 8 -20z
m361 5 c0 -5 -7 -7 -15 -4 -8 4 -15 8 -15 10 0 2 7 4 15 4 8 0 15 -4 15 -10z
m-2448 -64 c-3 -56 1 -72 32 -137 20 -41 36 -82 36 -92 0 -20 -54 -121 -105
-197 -30 -45 -50 -52 -67 -26 -5 8 -8 7 -8 -1 0 -9 -16 -13 -44 -13 -59 0 -67
-16 -19 -36 63 -26 83 -57 83 -129 0 -57 16 -114 53 -193 14 -29 3 -37 -73
-53 -30 -6 -77 -22 -104 -36 -27 -13 -52 -21 -56 -16 -4 4 -18 28 -31 53 -13
24 -39 67 -56 94 -43 66 -63 139 -66 234 -2 76 -1 78 45 152 47 75 141 204
198 269 17 19 30 39 30 46 0 28 116 140 150 144 3 1 4 -28 2 -63z m2638 21 c0
-19 -10 -27 -26 -20 -21 8 -17 33 6 33 11 0 20 -6 20 -13z m-197 -14 c-2 -7
13 -15 33 -19 51 -9 27 -28 -25 -19 -66 11 -101 59 -38 53 18 -2 31 -8 30 -15z
m92 -3 c3 -6 -5 -10 -19 -10 -14 0 -28 5 -31 10 -3 6 5 10 19 10 14 0 28 -4
31 -10z m405 -55 c0 -51 -4 -67 -16 -72 -13 -5 -13 -7 -2 -14 23 -15 -12 -59
-72 -90 -72 -37 -166 -41 -196 -8 -14 16 -15 23 -6 26 21 8 13 25 -9 18 -15
-5 -19 -4 -15 4 4 6 38 11 79 12 40 1 83 5 97 9 17 6 10 7 -23 3 -39 -4 -51
-2 -61 12 -11 16 -23 17 -87 12 l-74 -6 -14 30 c-12 27 -11 32 5 50 15 17 26
20 59 15 22 -4 86 -9 143 -12 l103 -6 37 40 c20 22 40 41 45 41 4 1 7 -28 7
-64z m-2801 -129 c1 -42 -5 -29 -12 24 -4 30 -3 38 3 25 5 -11 9 -33 9 -49z
m173 -98 c2 -25 0 -44 -4 -41 -5 2 -7 32 -7 66 2 65 6 55 11 -25z m112 -12
c-3 -15 -8 -25 -11 -23 -2 3 -1 17 3 31 3 15 8 25 11 23 2 -3 1 -17 -3 -31z
m2186 24 c0 -5 -2 -10 -4 -10 -3 0 -8 5 -11 10 -3 6 -1 10 4 10 6 0 11 -4 11
-10z m300 -2 c0 -46 -146 -280 -286 -460 -65 -83 -227 -243 -309 -304 -129
-98 -155 -115 -171 -119 -11 -2 -49 -17 -86 -34 -37 -17 -72 -31 -78 -31 -14
0 -12 34 4 72 40 92 86 231 86 259 0 22 -5 32 -20 36 -17 5 -20 14 -21 72 0
36 -2 79 -4 94 -3 24 -1 28 13 22 110 -42 185 -29 381 67 169 83 220 126 243
209 16 60 20 63 106 78 35 7 78 21 95 31 37 23 47 25 47 8z m-365 -8 c3 -5 15
-10 26 -10 25 0 24 -26 -2 -40 -44 -24 -98 10 -70 44 15 18 37 21 46 6z
m-2314 -110 c11 0 19 5 19 11 0 5 5 7 10 4 6 -3 10 -15 10 -25 0 -31 107 -347
140 -413 17 -33 40 -72 52 -84 l22 -23 -65 6 c-127 11 -127 10 -164 69 -19 29
-45 77 -58 107 -13 29 -33 73 -45 98 -40 87 -32 239 18 330 14 25 14 24 29
-27 10 -40 19 -53 32 -53z m1385 -5 c8 -33 38 -33 69 0 27 30 38 21 29 -23 -4
-21 -11 -29 -20 -25 -18 7 -17 -17 1 -41 11 -15 17 -17 29 -7 11 9 16 9 21 0
6 -8 10 -7 16 2 12 19 12 -93 0 -123 -5 -13 -14 -41 -21 -62 -27 -86 -118
-202 -169 -216 -74 -20 -185 -6 -126 16 8 3 17 16 21 27 3 12 23 58 44 102 39
82 45 101 80 242 14 60 17 89 10 108 -6 16 -6 25 0 25 5 0 12 -11 16 -25z
m-860 -63 c-11 -10 -13 3 -7 43 l6 40 3 -39 c2 -21 1 -41 -2 -44z m776 -49 c0
-26 -8 -64 -17 -83 -9 -19 -14 -25 -11 -12 2 12 0 22 -5 22 -5 0 -9 -7 -9 -15
0 -8 -7 -15 -15 -15 -8 0 -15 -6 -16 -12 0 -10 -2 -10 -5 -1 -3 7 0 22 6 34
10 17 9 24 -1 31 -11 7 -9 8 4 4 15 -5 17 -2 12 14 -5 15 -3 18 10 14 13 -5
15 -2 10 22 -5 22 -4 25 4 14 8 -12 11 -8 11 20 0 26 3 31 12 22 6 -6 11 -33
10 -59z m-158 -94 c-3 -5 2 -6 11 -3 14 6 16 0 11 -38 -3 -24 -8 -52 -12 -61
-7 -20 -30 -23 -38 -4 -3 6 -4 5 -3 -5 1 -9 -2 -17 -8 -17 -5 0 -13 -8 -17
-18 -6 -13 -7 -11 -4 10 5 40 -11 43 -18 4 -3 -19 -13 -42 -22 -53 -15 -19
-16 -19 -9 1 4 11 11 37 16 58 5 21 13 45 18 55 5 9 14 36 20 59 11 40 13 42
36 31 13 -6 22 -15 19 -19z m-850 -59 c-6 -56 -3 -78 11 -110 20 -45 18 -50
-20 -54 -19 -3 -25 0 -21 11 4 8 1 11 -5 8 -6 -4 -17 1 -25 11 -22 30 -66 125
-60 132 3 3 6 -1 7 -9 0 -9 4 -6 10 6 8 16 8 14 5 -10 -3 -16 -3 -24 1 -16 5
11 7 11 15 0 9 -14 8 -5 -8 54 -6 19 -3 19 21 -8 25 -27 27 -28 22 -8 -3 13
-1 26 4 29 5 3 9 2 8 -3 -3 -19 2 -36 9 -29 4 4 8 11 8 14 4 19 17 52 20 52 2
0 1 -32 -2 -70z m121 50 c10 -11 16 -20 13 -20 -3 0 -13 9 -23 20 -10 11 -16
20 -13 20 3 0 13 -9 23 -20z m-228 -22 c-3 -8 -6 -5 -6 6 -1 11 2 17 5 13 3
-3 4 -12 1 -19z m383 2 c1 10 4 8 9 -5 11 -26 7 -29 -18 -15 -12 6 -21 18 -21
27 0 14 2 14 15 -3 11 -15 15 -16 15 -4z m87 -5 c0 -8 -4 -12 -9 -9 -5 3 -6
10 -3 15 9 13 12 11 12 -6z m-324 -10 c-3 -9 -8 -14 -10 -11 -3 3 -2 9 2 15 9
16 15 13 8 -4z m713 -22 c-18 -33 -21 -26 -6 13 6 15 13 24 16 21 3 -3 -1 -18
-10 -34z m-531 -3 c3 -5 1 -10 -4 -10 -6 0 -11 5 -11 10 0 6 2 10 4 10 3 0 8
-4 11 -10z m706 -13 c-10 -9 -11 -8 -5 6 3 10 9 15 12 12 3 -3 0 -11 -7 -18z
m-666 -7 c3 -6 -1 -7 -9 -4 -18 7 -21 14 -7 14 6 0 13 -4 16 -10z m170 -45
c32 -33 34 -91 4 -129 -21 -26 -62 -35 -74 -16 -3 6 -19 10 -34 10 -50 0 -82
50 -60 94 34 66 117 87 164 41z m-345 1 c0 -3 -4 -8 -10 -11 -5 -3 -10 -1 -10
4 0 6 5 11 10 11 6 0 10 -2 10 -4z m454 -33 c-3 -28 -2 -33 5 -18 6 14 8 7 6
-29 -2 -26 -8 -53 -15 -60 -10 -8 -11 -6 -5 12 4 13 2 22 -4 22 -6 0 -11 -6
-11 -14 0 -8 -4 -17 -9 -21 -6 -3 -7 6 -2 22 4 16 7 34 5 41 -1 7 0 8 3 2 7
-15 23 -2 17 15 -4 8 -10 12 -15 9 -5 -3 -9 -1 -9 5 0 5 -3 18 -7 28 -6 15 -4
16 9 5 13 -10 17 -10 22 3 10 27 15 16 10 -22z m-484 17 c0 -5 -4 -10 -10 -10
-5 0 -10 5 -10 10 0 6 5 10 10 10 6 0 10 -4 10 -10z m670 0 c0 -5 -5 -10 -11
-10 -5 0 -7 5 -4 10 3 6 8 10 11 10 2 0 4 -4 4 -10z m-654 -66 c-3 -8 -11 -14
-17 -14 -8 0 -7 5 2 17 11 13 11 17 1 20 -6 3 -9 9 -6 15 9 15 27 -19 20 -38z
m625 5 l-10 -24 0 26 c-1 14 2 29 6 33 12 12 14 -9 4 -35z m-34 -31 c-3 -8 -6
-5 -6 6 -1 11 2 17 5 13 3 -3 4 -12 1 -19z m178 -38 c3 -5 1 -10 -4 -10 -6 0
-11 5 -11 10 0 6 2 10 4 10 3 0 8 -4 11 -10z m-345 -14 c0 -2 -7 -7 -16 -10
-8 -3 -12 -2 -9 4 6 10 25 14 25 6z m37 -2 c-3 -3 -12 -4 -19 -1 -8 3 -5 6 6
6 11 1 17 -2 13 -5z m-409 -11 c-10 -2 -28 -2 -40 0 -13 2 -5 4 17 4 22 1 32
-1 23 -4z m669 1 c-3 -3 -12 -4 -19 -1 -8 3 -5 6 6 6 11 1 17 -2 13 -5z m683
-4 c0 -14 -77 -69 -130 -92 -25 -11 -61 -35 -80 -54 -94 -89 -417 -183 -622
-180 -53 0 -91 -2 -85 -6 7 -4 -15 -8 -48 -8 -33 0 -107 -5 -165 -12 -91 -11
-100 -13 -65 -19 22 -4 42 -3 45 1 3 4 32 10 65 13 l60 5 -65 -18 c-36 -10
-58 -19 -50 -19 13 -1 13 -2 0 -11 -20 -13 -39 -12 -20 1 11 7 5 8 -21 3 -22
-3 -39 -2 -43 5 -4 6 -13 11 -19 11 -7 0 -6 -4 3 -10 11 -8 7 -9 -15 -4 -58
13 -80 25 -66 33 8 5 -2 8 -25 8 -44 -1 -185 41 -289 85 -83 36 -215 110 -215
121 0 4 9 3 20 -3 13 -7 20 -7 20 -1 0 6 -18 15 -40 21 -64 17 -95 83 -44 93
15 2 74 1 133 -4 313 -25 1036 -19 1356 12 61 6 173 16 250 24 77 7 143 13
148 14 4 0 7 -3 7 -9z m-937 -7 c-7 -2 -19 -2 -25 0 -7 3 -2 5 12 5 14 0 19
-2 13 -5z m-1034 -39 c31 -40 28 -64 -9 -64 -20 0 -30 -5 -30 -15 0 -8 3 -14
8 -13 21 7 95 -73 87 -95 -15 -39 -69 -24 -124 35 -25 27 -32 30 -45 19 -30
-25 -31 -76 -3 -124 35 -60 22 -70 -51 -43 -99 37 -120 52 -124 88 -4 31 -4
32 -10 8 -4 -14 -10 -42 -13 -63 -7 -43 -19 -44 -49 -4 -14 20 -20 43 -20 90
-1 68 10 88 58 107 21 8 24 7 20 -8 -2 -9 1 -7 8 6 21 42 155 100 230 101 39
1 50 -3 67 -25z m-9 -259 c19 -23 6 -28 -33 -11 -36 14 -57 41 -57 71 0 13 8
10 38 -14 22 -17 45 -37 52 -46z m-120 -116 c-13 -24 -25 -23 -77 4 -37 19
-93 78 -93 98 0 3 40 -14 90 -38 81 -40 89 -46 80 -64z m-179 44 c13 -16 12
-17 -3 -4 -10 7 -18 15 -18 17 0 8 8 3 21 -13z"/>
<path d="M2671 3984 c0 -11 3 -14 6 -6 3 7 2 16 -1 19 -3 4 -6 -2 -5 -13z"/>
<path d="M2682 3925 c0 -16 2 -22 5 -12 2 9 2 23 0 30 -3 6 -5 -1 -5 -18z"/>
<path d="M2760 3505 c0 -11 5 -27 10 -35 8 -12 10 -12 10 5 0 11 -5 27 -10 35
-8 12 -10 12 -10 -5z"/>
<path d="M2747 3424 c-4 -4 -7 -14 -7 -23 0 -11 3 -12 11 -4 6 6 10 16 7 23
-2 6 -7 8 -11 4z"/>
<path d="M2752 3340 c0 -14 2 -19 5 -12 2 6 2 18 0 25 -3 6 -5 1 -5 -13z"/>
<path d="M2533 3293 c15 -2 37 -2 50 0 12 2 0 4 -28 4 -27 0 -38 -2 -22 -4z"/>
<path d="M2663 3293 c15 -2 37 -2 50 0 12 2 0 4 -28 4 -27 0 -38 -2 -22 -4z"/>
<path d="M2338 3263 c6 -2 18 -2 25 0 6 3 1 5 -13 5 -14 0 -19 -2 -12 -5z"/>
<path d="M2908 4733 c12 -2 30 -2 40 0 9 3 -1 5 -23 4 -22 0 -30 -2 -17 -4z"/>
<path d="M3028 4713 c7 -3 16 -2 19 1 4 3 -2 6 -13 5 -11 0 -14 -3 -6 -6z"/>
<path d="M3940 4280 c0 -6 7 -10 15 -10 8 0 15 2 15 4 0 2 -7 6 -15 10 -8 3
-15 1 -15 -4z"/>
<path d="M2998 4023 c7 -3 16 -2 19 1 4 3 -2 6 -13 5 -11 0 -14 -3 -6 -6z"/>
<path d="M3045 4010 c11 -5 27 -9 35 -9 13 -1 13 0 0 9 -8 5 -24 9 -35 9 l-20
0 20 -9z"/>
<path d="M3108 3993 c7 -3 16 -2 19 1 4 3 -2 6 -13 5 -11 0 -14 -3 -6 -6z"/>
<path d="M3350 3889 c60 -34 100 -51 100 -44 0 6 -137 75 -147 75 -5 0 17 -14
47 -31z"/>
<path d="M3554 3755 c11 -8 24 -15 30 -15 5 0 1 7 -10 15 -10 8 -23 14 -29 14
-5 0 -1 -6 9 -14z"/>
<path d="M1980 4679 c-35 -12 -43 -16 -20 -12 40 7 112 32 90 31 -8 0 -40 -8
-70 -19z"/>
<path d="M1790 4620 c-8 -5 -10 -10 -5 -10 6 0 17 5 25 10 8 5 11 10 5 10 -5
0 -17 -5 -25 -10z"/>
<path d="M1715 4591 c-22 -11 -35 -19 -30 -19 14 -1 93 36 80 37 -5 0 -28 -8
-50 -18z"/>
<path d="M2060 4581 c-245 -66 -392 -118 -481 -173 -25 -15 -50 -28 -54 -28
-11 0 -203 -109 -218 -124 -7 -8 -45 -34 -83 -58 -38 -25 -76 -53 -84 -64 -8
-10 0 -6 18 9 19 15 38 25 43 21 5 -3 12 2 15 10 3 9 12 16 20 16 8 0 14 5 14
10 0 6 5 10 12 10 7 0 24 12 39 26 14 14 33 26 42 28 8 1 30 13 48 27 79 60
375 196 494 228 44 11 114 30 155 42 41 11 95 25 119 30 24 5 47 11 49 14 12
12 -51 2 -148 -24z"/>
<path d="M1628 4554 c-39 -21 -35 -28 5 -8 37 19 44 24 31 24 -5 -1 -21 -8
-36 -16z"/>
<path d="M1474 4474 c-18 -14 -18 -14 6 -3 31 14 36 19 24 19 -6 0 -19 -7 -30
-16z"/>
<path d="M1334 4394 c-18 -14 -18 -14 6 -3 31 14 36 19 24 19 -6 0 -19 -7 -30
-16z"/>
<path d="M1830 4250 c-30 -10 -50 -18 -45 -19 6 0 37 8 70 18 33 11 53 19 45
19 -8 1 -40 -7 -70 -18z"/>
<path d="M1976 4252 c-2 -4 4 -8 14 -8 10 0 16 4 14 8 -3 4 -9 8 -14 8 -5 0
-11 -4 -14 -8z"/>
<path d="M1710 4207 c-37 -23 -60 -41 -120 -94 -21 -18 -41 -29 -45 -25 -5 4
-5 1 -1 -5 5 -8 1 -13 -10 -13 -10 0 -15 -3 -11 -6 12 -12 44 8 104 65 34 32
81 68 105 80 24 11 36 21 28 21 -8 0 -31 -10 -50 -23z"/>
<path d="M1915 4210 c-3 -5 1 -10 10 -10 9 0 13 5 10 10 -3 6 -8 10 -10 10 -2
0 -7 -4 -10 -10z"/>
<path d="M1205 4100 l-20 -9 20 0 c11 0 27 4 35 9 13 9 13 10 0 9 -8 0 -24 -4
-35 -9z"/>
<path d="M1418 4103 c7 -3 16 -2 19 1 4 3 -2 6 -13 5 -11 0 -14 -3 -6 -6z"/>
<path d="M985 3978 c-48 -51 -97 -108 -107 -125 -11 -18 -24 -33 -29 -33 -5 0
-9 -6 -9 -13 0 -7 -9 -18 -20 -25 -11 -7 -20 -19 -20 -26 0 -8 -4 -16 -8 -18
-16 -6 -52 -67 -43 -72 4 -3 21 13 37 37 78 114 135 187 193 246 60 63 107
121 98 121 -3 0 -44 -42 -92 -92z"/>
<path d="M1635 4060 c3 -5 8 -10 11 -10 2 0 4 5 4 10 0 6 -5 10 -11 10 -5 0
-7 -4 -4 -10z"/>
<path d="M1240 4040 c-8 -5 -12 -12 -9 -15 8 -8 39 5 39 16 0 11 -11 11 -30
-1z"/>
<path d="M1870 4040 c-11 -8 -7 -9 15 -4 37 8 45 14 19 14 -10 0 -26 -5 -34
-10z"/>
<path d="M1720 3990 c0 -5 5 -10 10 -10 6 0 10 5 10 10 0 6 -4 10 -10 10 -5 0
-10 -4 -10 -10z"/>
<path d="M1495 3649 c-92 -69 -218 -210 -265 -299 -23 -44 2 -16 43 48 39 59
156 182 242 256 41 34 29 31 -20 -5z"/>
<path d="M4556 3620 c15 -22 29 -38 31 -36 5 5 -46 76 -53 76 -3 0 8 -18 22
-40z"/>
<path d="M1452 3448 c-14 -19 -44 -79 -40 -83 2 -2 15 19 30 46 26 49 29 60
10 37z"/>
<path d="M942 3320 c-5 -14 -11 -29 -12 -35 -3 -13 -35 -72 -56 -105 -13 -19
-10 -17 10 5 14 17 33 43 42 58 8 16 20 25 26 21 7 -5 9 2 6 19 -4 22 -2 25
11 17 24 -12 200 -203 346 -372 69 -82 129 -148 132 -148 3 0 -2 9 -12 20 -10
11 -15 20 -10 20 4 0 -4 9 -18 21 -15 11 -34 36 -43 55 -9 20 -61 83 -116 142
-83 90 -97 111 -93 132 3 14 2 20 -2 15 -12 -17 -45 -12 -57 8 -6 10 -30 39
-54 65 -26 28 -41 54 -38 64 3 14 1 15 -15 5 -16 -10 -21 -9 -29 3 -7 12 -11
10 -18 -10z m358 -355 c13 -14 21 -25 18 -25 -2 0 -15 11 -28 25 -13 14 -21
25 -18 25 2 0 15 -11 28 -25z"/>
<path d="M875 3247 c-17 -18 -85 -82 -153 -141 -67 -59 -127 -117 -133 -129
-6 -13 6 -5 28 18 21 22 65 63 97 90 128 108 167 143 187 169 30 38 9 32 -26
-7z"/>
<path d="M998 3205 c14 -26 92 -130 92 -123 0 17 -47 91 -73 115 -22 21 -27
23 -19 8z"/>
<path d="M924 3162 c-6 -9 -21 -35 -34 -56 -13 -22 -19 -36 -13 -33 13 8 66
97 61 102 -2 2 -8 -4 -14 -13z"/>
<path d="M830 3090 c-7 -17 -10 -33 -8 -36 3 -2 11 9 18 26 7 17 10 33 8 36
-3 2 -11 -9 -18 -26z"/>
<path d="M912 3063 c-30 -44 -36 -57 -25 -50 12 7 55 77 48 77 -2 0 -12 -12
-23 -27z"/>
<path d="M1130 3061 c0 -6 4 -13 10 -16 6 -3 7 1 4 9 -7 18 -14 21 -14 7z"/>
<path d="M816 2995 c-9 -26 -7 -32 5 -12 6 10 9 21 6 23 -2 3 -7 -2 -11 -11z"/>
<path d="M615 2940 c3 -4 16 -10 30 -12 13 -3 22 -2 20 2 -3 4 -16 10 -30 12
-13 3 -22 2 -20 -2z"/>
<path d="M861 2934 c0 -11 3 -14 6 -6 3 7 2 16 -1 19 -3 4 -6 -2 -5 -13z"/>
<path d="M3874 2935 c-10 -8 -14 -14 -9 -15 15 0 40 18 34 24 -3 3 -14 -1 -25
-9z"/>
<path d="M600 2910 c-8 -4 -26 -12 -39 -17 -20 -8 -13 -12 60 -37 46 -16 91
-35 99 -42 8 -7 29 -15 45 -18 l30 -6 -30 11 c-16 6 -37 17 -45 24 -16 13
-103 50 -135 58 -19 4 -18 5 2 6 12 0 25 6 28 12 9 14 3 18 -15 9z"/>
<path d="M1300 2834 c0 -5 37 -45 82 -89 95 -92 85 -73 -14 30 -38 38 -68 65
-68 59z"/>
<path d="M990 2823 c0 -6 8 -17 18 -24 16 -13 16 -13 2 6 -8 11 -16 22 -17 24
-2 2 -3 0 -3 -6z"/>
<path d="M4693 2780 c0 -25 2 -35 4 -22 2 12 2 32 0 45 -2 12 -4 2 -4 -23z"/>
<path d="M934 2782 c20 -21 26 -36 22 -49 -6 -14 -5 -15 5 -6 16 16 -2 53 -34
72 -17 10 -15 7 7 -17z"/>
<path d="M800 2780 c0 -5 5 -10 10 -10 6 0 10 5 10 10 0 6 -4 10 -10 10 -5 0
-10 -4 -10 -10z"/>
<path d="M4713 2520 c-1 -129 -4 -246 -7 -260 -3 -14 -2 -59 3 -100 l9 -75 -1
77 c-1 42 1 74 6 71 8 -5 7 233 -3 402 -6 103 -7 86 -7 -115z"/>
<path d="M1021 2724 c0 -11 3 -14 6 -6 3 7 2 16 -1 19 -3 4 -6 -2 -5 -13z"/>
<path d="M910 2710 c0 -6 5 -10 11 -10 6 0 9 -7 5 -15 -4 -11 2 -15 22 -15 15
0 34 5 42 10 11 7 7 10 -17 10 -18 0 -33 4 -33 9 0 5 -7 11 -15 15 -8 3 -15 1
-15 -4z"/>
<path d="M850 2620 c-18 -12 -2 -12 25 0 13 6 15 9 5 9 -8 0 -22 -4 -30 -9z"/>
<path d="M775 2590 c-8 -13 5 -13 25 0 13 8 13 10 -2 10 -9 0 -20 -4 -23 -10z"/>
<path d="M727 2527 c-31 -16 -55 -32 -53 -34 7 -8 90 33 105 50 17 21 18 21
-52 -16z"/>
<path d="M626 2475 c-11 -8 -17 -17 -14 -20 3 -3 16 3 29 14 27 23 14 28 -15
6z"/>
<path d="M560 2424 c-37 -31 -33 -42 7 -20 15 8 22 15 14 16 -11 0 -9 4 5 15
10 8 16 15 12 15 -3 0 -21 -12 -38 -26z"/>
<path d="M1373 2443 c9 -2 23 -2 30 0 6 3 -1 5 -18 5 -16 0 -22 -2 -12 -5z"/>
<path d="M655 2410 c-3 -6 1 -7 9 -4 18 7 21 14 7 14 -6 0 -13 -4 -16 -10z"/>
<path d="M493 2343 c9 -2 23 -2 30 0 6 3 -1 5 -18 5 -16 0 -22 -2 -12 -5z"/>
<path d="M4515 2327 c-33 -11 -55 -22 -48 -24 12 -4 133 36 133 43 0 7 -25 2
-85 -19z"/>
<path d="M500 2230 c8 -5 20 -10 25 -10 6 0 3 5 -5 10 -8 5 -19 10 -25 10 -5
0 -3 -5 5 -10z"/>
<path d="M510 2203 c0 -4 24 -21 53 -37 28 -16 60 -36 70 -44 22 -20 22 -11
-1 16 -10 11 -30 24 -45 27 -15 4 -30 11 -33 16 -8 13 -44 31 -44 22z"/>
<path d="M618 2193 c6 -2 18 -2 25 0 6 3 1 5 -13 5 -14 0 -19 -2 -12 -5z"/>
<path d="M1360 2138 c0 -11 12 -10 30 2 12 7 10 9 -8 7 -12 0 -22 -5 -22 -9z"/>
<path d="M658 2133 c6 -2 18 -2 25 0 6 3 1 5 -13 5 -14 0 -19 -2 -12 -5z"/>
<path d="M995 2040 c-3 -6 1 -7 9 -4 18 7 21 14 7 14 -6 0 -13 -4 -16 -10z"/>
<path d="M868 2033 c7 -3 16 -2 19 1 4 3 -2 6 -13 5 -11 0 -14 -3 -6 -6z"/>
<path d="M1069 1979 l-24 -20 28 17 c15 9 27 18 27 20 0 8 -8 4 -31 -17z"/>
<path d="M938 1918 c7 -7 16 -7 28 0 14 8 13 10 -10 10 -18 0 -24 -4 -18 -10z"/>
<path d="M867 1790 c7 -40 10 -46 20 -37 3 4 -1 22 -10 40 l-16 32 6 -35z"/>
<path d="M809 1703 l-24 -28 28 24 c25 23 32 31 24 31 -2 0 -14 -12 -28 -27z"/>
<path d="M901 1715 c1 -19 18 -51 18 -35 0 8 -4 22 -9 30 -5 8 -9 11 -9 5z"/>
<path d="M761 1643 c-10 -26 -10 -27 4 -9 8 11 15 23 15 28 0 15 -7 8 -19 -19z"/>
<path d="M1075 1623 c-10 -21 -20 -42 -23 -47 -3 -5 0 -6 7 -2 12 8 44 77 37
83 -2 2 -11 -13 -21 -34z"/>
<path d="M946 1613 c-6 -14 -5 -15 5 -6 7 7 10 15 7 18 -3 3 -9 -2 -12 -12z"/>
<path d="M731 1564 c0 -11 3 -14 6 -6 3 7 2 16 -1 19 -3 4 -6 -2 -5 -13z"/>
<path d="M815 1570 c3 -5 8 -10 11 -10 2 0 4 5 4 10 0 6 -5 10 -11 10 -5 0 -7
-4 -4 -10z"/>
<path d="M869 1553 c-13 -16 -12 -17 4 -4 9 7 17 15 17 17 0 8 -8 3 -21 -13z"/>
<path d="M776 1551 c-3 -5 1 -11 9 -15 9 -3 15 0 15 9 0 16 -16 20 -24 6z"/>
<path d="M732 1523 c6 -7 14 -13 18 -13 3 0 7 6 7 13 0 7 -8 13 -18 13 -13 0
-15 -3 -7 -13z"/>
<path d="M1040 1525 c-9 -11 -10 -19 -3 -26 8 -8 13 -7 18 2 5 8 4 10 -3 5 -7
-4 -12 -3 -12 3 0 5 6 11 13 14 6 2 9 7 6 11 -3 4 -12 -1 -19 -9z"/>
<path d="M797 1503 c-4 -3 -7 -11 -7 -17 0 -6 5 -5 12 2 6 6 9 14 7 17 -3 3
-9 2 -12 -2z"/>
<path d="M1070 1455 c13 -14 25 -25 27 -25 9 0 -33 49 -41 50 -5 0 1 -11 14
-25z"/>
<path d="M4049 613 c-13 -16 -12 -17 4 -4 16 13 21 21 13 21 -2 0 -10 -8 -17
-17z"/>
<path d="M4161 4030 c-17 -15 -19 -20 -7 -20 8 0 20 9 26 20 13 25 11 25 -19
0z"/>
<path d="M4085 3940 c-3 -6 1 -7 9 -4 18 7 21 14 7 14 -6 0 -13 -4 -16 -10z"/>
<path d="M4028 3914 c-39 -21 -35 -28 5 -8 37 19 44 24 31 24 -5 -1 -21 -8
-36 -16z"/>
<path d="M3830 3925 c-13 -14 -22 -27 -19 -29 2 -2 14 10 27 25 29 36 24 38
-8 4z"/>
<path d="M1825 2528 c-19 -40 -43 -84 -52 -98 -14 -18 -15 -22 -3 -16 8 4 4
-1 -9 -12 -13 -11 -19 -22 -14 -25 14 -9 35 18 64 78 26 55 58 145 52 145 -2
0 -20 -33 -38 -72z"/>
<path d="M2638 2505 c-3 -3 -16 -8 -28 -10 -13 -3 -26 -8 -29 -12 -4 -5 -18
-19 -33 -32 -24 -21 -30 -22 -45 -10 -15 12 -16 12 -11 -3 4 -10 1 -19 -8 -22
-22 -8 -24 -8 -24 9 0 11 -5 12 -22 6 -13 -5 -22 -15 -20 -23 2 -7 0 -10 -4
-6 -4 4 -28 -9 -53 -30 -43 -34 -45 -35 -28 -9 33 51 12 51 -25 1 -29 -40 -68
-114 -68 -130 0 -14 20 0 25 17 4 11 9 18 12 16 6 -6 -25 -97 -38 -113 -27
-33 -49 -130 -47 -213 l1 -86 6 86 c5 70 15 108 51 198 25 61 49 109 55 107 5
-2 30 13 55 33 35 29 41 31 27 11 -9 -13 -17 -31 -17 -38 0 -8 15 8 33 34 34
52 77 72 77 37 1 -15 2 -16 9 -3 8 12 34 15 152 13 136 -1 143 -2 161 -25 18
-21 19 -22 9 -1 -6 12 -11 25 -11 28 0 14 54 -7 83 -31 16 -13 34 -24 41 -24
7 0 27 -16 46 -35 19 -19 39 -35 46 -35 7 0 31 -23 53 -51 39 -49 58 -58 26
-13 -8 12 -11 25 -7 29 4 5 1 5 -5 1 -9 -5 -14 0 -15 16 0 13 -2 28 -2 34 -3
23 -80 144 -86 134 -4 -6 -38 5 -88 30 -46 22 -90 40 -99 40 -28 0 -111 44
-122 65 -8 17 -10 17 -10 3 -1 -9 -5 -19 -10 -22 -5 -4 -7 3 -4 14 5 20 2 25
-9 15z m62 -100 c43 -22 44 -23 20 -30 -14 -3 -63 -5 -110 -3 l-85 3 30 17
c17 10 26 18 20 19 -15 2 36 17 60 18 11 0 40 -11 65 -24z m294 -91 c18 -17
22 -39 6 -29 -11 7 -33 45 -26 45 2 0 12 -7 20 -16z m-644 -14 c0 -5 -5 -10
-11 -10 -5 0 -7 5 -4 10 3 6 8 10 11 10 2 0 4 -4 4 -10z"/>
<path d="M2286 2475 c-11 -8 -15 -15 -9 -15 6 0 16 7 23 15 16 19 11 19 -14 0z"/>
<path d="M2208 2417 c-37 -32 -56 -71 -78 -155 -24 -95 23 -59 66 50 13 33 29
68 36 77 51 64 37 81 -24 28z"/>
<path d="M1934 2278 l-19 -23 23 19 c21 18 27 26 19 26 -2 0 -12 -10 -23 -22z"/>
<path d="M3056 2287 c3 -10 9 -15 12 -12 3 3 0 11 -7 18 -10 9 -11 8 -5 -6z"/>
<path d="M2328 2210 c-9 -22 -15 -40 -13 -40 8 0 36 61 33 70 -2 5 -11 -9 -20
-30z"/>
<path d="M2891 2224 c0 -11 3 -14 6 -6 3 7 2 16 -1 19 -3 4 -6 -2 -5 -13z"/>
<path d="M2427 2173 c-8 -21 -16 -52 -17 -68 -5 -71 1 -388 7 -382 3 4 6 90 5
192 -1 127 3 201 13 237 16 64 13 73 -8 21z"/>
<path d="M1802 2156 c-22 -24 -45 -54 -53 -67 -12 -23 -11 -23 6 -9 10 8 19
13 21 10 1 -3 6 -1 11 4 5 5 3 6 -4 2 -23 -13 -14 6 28 55 51 61 45 64 -9 5z"/>
<path d="M2784 2055 c0 -82 2 -115 3 -72 2 43 2 110 0 150 -1 40 -3 5 -3 -78z"/>
<path d="M2901 2195 c-1 -17 27 -166 32 -171 3 -3 3 14 0 38 -7 49 -30 148
-32 133z"/>
<path d="M2584 2000 c0 -132 1 -139 9 -72 5 42 5 102 0 145 -8 66 -9 59 -9
-73z"/>
<path d="M3040 2060 c22 -77 65 -176 86 -199 12 -13 20 -31 17 -40 -4 -13 -3
-13 5 -2 7 9 3 27 -13 60 -13 25 -38 80 -56 121 -37 85 -53 110 -39 60z"/>
<path d="M2612 2060 c0 -14 2 -19 5 -12 2 6 2 18 0 25 -3 6 -5 1 -5 -13z"/>
<path d="M3221 2024 c0 -11 3 -14 6 -6 3 7 2 16 -1 19 -3 4 -6 -2 -5 -13z"/>
<path d="M1914 1998 l-19 -23 23 19 c21 18 27 26 19 26 -2 0 -12 -10 -23 -22z"/>
<path d="M2377 1979 c3 -24 7 -46 9 -48 9 -10 3 65 -5 78 -6 10 -8 -1 -4 -30z"/>
<path d="M2624 1930 c0 -52 1 -74 3 -47 2 26 2 68 0 95 -2 26 -3 4 -3 -48z"/>
<path d="M2253 1965 c0 -22 2 -30 4 -17 2 12 2 30 0 40 -3 9 -5 -1 -4 -23z"/>
<path d="M2504 1880 c0 -58 1 -81 3 -52 2 28 2 76 0 105 -2 28 -3 5 -3 -53z"/>
<path d="M2855 1881 c3 -24 19 -69 35 -100 17 -31 30 -62 30 -70 0 -8 3 -12 6
-9 8 8 -28 118 -38 118 -4 0 -8 10 -8 23 -1 12 -7 36 -16 52 l-14 30 5 -44z"/>
<path d="M1937 1878 c-11 -48 -18 -163 -9 -148 8 13 23 170 17 170 -2 0 -5
-10 -8 -22z"/>
<path d="M2746 1847 c3 -10 9 -15 12 -12 3 3 0 11 -7 18 -10 9 -11 8 -5 -6z"/>
<path d="M3050 1788 c0 -11 59 -138 64 -138 3 0 -5 25 -18 55 -27 60 -45 94
-46 83z"/>
<path d="M1895 1670 c-4 -23 -5 -43 -2 -46 2 -3 7 14 11 37 4 23 5 44 2 46 -2
2 -7 -14 -11 -37z"/>
<path d="M2232 1670 c0 -19 2 -27 5 -17 2 9 2 25 0 35 -3 9 -5 1 -5 -18z"/>
<path d="M2932 1670 c0 -14 2 -19 5 -12 2 6 2 18 0 25 -3 6 -5 1 -5 -13z"/>
<path d="M3112 1595 c0 -16 2 -22 5 -12 2 9 2 23 0 30 -3 6 -5 -1 -5 -18z"/>
<path d="M2594 1587 c3 -10 6 -25 6 -33 0 -8 5 -14 11 -14 12 0 2 40 -14 55
-7 7 -8 4 -3 -8z"/>
<path d="M2227 1553 c-4 -3 -7 -22 -6 -42 l1 -36 9 39 c9 39 8 52 -4 39z"/>
<path d="M2829 2993 c-20 -5 -32 -58 -19 -82 23 -45 79 -53 95 -14 22 55 24
73 7 82 -24 12 -64 19 -83 14z"/>
<path d="M4051 2744 c0 -11 3 -14 6 -6 3 7 2 16 -1 19 -3 4 -6 -2 -5 -13z"/>
<path d="M3250 2535 c0 -10 78 -115 86 -115 7 0 -3 17 -39 65 -41 54 -47 60
-47 50z"/>
<path d="M2995 1199 c-4 -6 -5 -12 -2 -15 2 -3 7 2 10 11 7 17 1 20 -8 4z"/>
<path d="M2141 1058 c-1 -21 15 -32 25 -17 4 7 3 9 -4 5 -6 -3 -13 2 -15 11
-4 16 -5 16 -6 1z"/>
<path d="M3030 771 l-75 -6 52 -6 c31 -4 72 -1 100 7 51 13 43 14 -77 5z"/>
<path d="M2778 753 c7 -3 16 -2 19 1 4 3 -2 6 -13 5 -11 0 -14 -3 -6 -6z"/>
<path d="M2428 543 c7 -3 16 -2 19 1 4 3 -2 6 -13 5 -11 0 -14 -3 -6 -6z"/>
</g>
</svg>
